<svg class="svg-icon" style="width: 1em; height: 1em;vertical-align: middle;fill: currentColor;overflow: hidden;" viewBox="0 0 1024 1024" version="1.1" xmlns="http://www.w3.org/2000/svg"><path d="M802.8 708.4c-5.8 0.2-11.6 0.4-17.4 0.4-95.8 0-186-37.8-253.6-106.8-67.8-68.8-105-160.2-105-257.6 0-55.4 12.2-109 35-157.4 6.2-13.2 18.6-33.2 27.2-46.8 3.8-5.8-1-13.4-7.8-12.2-12 1.8-30.4 5.8-55.4 13.6C270.2 191 160 337.4 160 510c0 213.2 170.2 386 380.2 386 116 0 220-52.8 289.8-136.2 12-14.4 23-27.6 32.8-43.6 3.6-6-1.4-13.4-8.2-12.2-17 3.4-34.2 3.6-51.8 4.4z"  /></svg>